<svg width="1400" height="900" viewBox="0 0 1400 900" fill="none" xmlns="http://www.w3.org/2000/svg">
  <rect width="1400" height="900" fill="#F8F9FA"/>
  <rect x="70" y="80" width="1260" height="740" rx="26" fill="#FFFFFF" stroke="#E3E6E8"/>

  <rect x="220" y="180" width="960" height="250" rx="18" fill="#0A62BF"/>
  <rect x="330" y="240" width="140" height="110" rx="10" fill="#FFFFFF"/>
  <rect x="520" y="240" width="140" height="110" rx="10" fill="#FFFFFF"/>
  <rect x="710" y="240" width="140" height="110" rx="10" fill="#FFFFFF"/>
  <rect x="900" y="240" width="140" height="110" rx="10" fill="#FFFFFF"/>

  <rect x="250" y="480" width="900" height="24" rx="12" fill="#E3E6E8"/>
  <rect x="250" y="520" width="900" height="24" rx="12" fill="#E3E6E8"/>

  <!-- Group of students -->
  <circle cx="390" cy="630" r="44" fill="#212529"/>
  <rect x="340" y="680" width="100" height="110" rx="28" fill="#084A8A"/>
  <rect x="322" y="716" width="24" height="74" rx="12" fill="#212529"/>
  <rect x="434" y="716" width="24" height="74" rx="12" fill="#212529"/>

  <circle cx="560" cy="620" r="42" fill="#212529"/>
  <rect x="512" y="668" width="96" height="122" rx="26" fill="#0C6CB1"/>
  <rect x="494" y="708" width="24" height="82" rx="12" fill="#212529"/>
  <rect x="602" y="708" width="24" height="82" rx="12" fill="#212529"/>

  <circle cx="730" cy="636" r="44" fill="#212529"/>
  <rect x="678" y="686" width="104" height="104" rx="26" fill="#0A62BF"/>
  <rect x="660" y="722" width="24" height="68" rx="12" fill="#212529"/>
  <rect x="776" y="722" width="24" height="68" rx="12" fill="#212529"/>

  <circle cx="900" cy="620" r="42" fill="#212529"/>
  <rect x="852" y="668" width="96" height="122" rx="26" fill="#0C6CB1"/>
  <rect x="834" y="708" width="24" height="82" rx="12" fill="#212529"/>
  <rect x="942" y="708" width="24" height="82" rx="12" fill="#212529"/>

  <circle cx="1030" cy="640" r="40" fill="#212529"/>
  <rect x="984" y="686" width="92" height="104" rx="26" fill="#084A8A"/>
  <rect x="968" y="720" width="22" height="70" rx="11" fill="#212529"/>
  <rect x="1070" y="720" width="22" height="70" rx="11" fill="#212529"/>

  <text x="250" y="150" fill="#FFFFFF" font-family="Roboto, Arial, sans-serif" font-size="36" font-weight="700">
    Ecole moderne africaine
  </text>
  <text x="250" y="860" fill="#4A4A4A" font-family="Roboto, Arial, sans-serif" font-size="30">
    Education numerique inclusive pour tous les eleves
  </text>
</svg>
